# Blender 4.0.2
# www.blender.org
mtllib building_01.mtl
o Plane
v -5.000000 0.000000 8.000000
v 5.000000 0.000000 8.000000
v -5.000000 0.000000 -8.000000
v 5.000000 0.000000 -8.000000
v -5.000000 0.600000 -8.000000
v -5.000000 0.600000 8.000000
v 5.000000 0.600000 8.000000
v 5.000000 0.600000 -8.000000
v -4.750000 0.600000 -7.600000
v -4.750000 0.600000 7.600000
v 4.750000 0.600000 7.600000
v 4.750000 0.600000 -7.600000
v -4.750000 10.600000 -7.600000
v -4.750000 10.600000 7.600000
v 4.750000 10.600000 7.600000
v 4.750000 10.600000 -7.600000
v -4.987500 10.600000 -7.980001
v -4.987500 10.600000 7.980001
v 4.987500 10.600000 7.980001
v 4.987500 10.600000 -7.980001
v -4.987500 11.600000 -7.980001
v -4.987500 11.600000 7.980001
v 4.987500 11.600000 7.980001
v 4.987500 11.600000 -7.980001
v -4.488750 11.600000 -7.182001
v -4.488750 11.600000 7.182001
v 4.488750 11.600000 7.182001
v 4.488750 11.600000 -7.182001
v -4.488750 10.600000 -7.182001
v -4.488750 10.600000 7.182001
v 4.488750 10.600000 7.182001
v 4.488750 10.600000 -7.182001
v 4.750000 6.100000 -7.600000
v 4.750000 6.100000 7.600000
v -4.750000 6.100000 7.600000
v -4.750000 6.100000 -7.600000
v 4.750000 5.825001 7.600000
v -4.750000 5.825001 -7.600000
v 4.750000 5.825000 -7.600000
v -4.750000 5.825000 7.600000
v 4.797501 5.825000 -7.676001
v 4.797501 6.100000 -7.676001
v -4.797501 5.825000 7.676001
v -4.797501 6.100000 7.676001
v 4.797501 6.100000 7.676001
v -4.797501 6.100000 -7.676001
v 4.797501 5.825001 7.676001
v -4.797501 5.825001 -7.676001
v 4.907317 5.299005 3.834173
v 4.907317 5.299005 6.874173
v 4.907317 1.125996 6.874173
v 4.907317 1.125997 3.834173
v 4.807318 1.125997 3.834173
v 4.807318 1.125996 6.874173
v 4.807318 5.299005 3.834173
v 4.807318 5.299005 6.874173
v 4.907317 5.299005 6.874173
v 4.907317 5.299005 3.834173
v 4.907317 1.125996 6.874173
v 4.907317 1.125997 3.834173
v 4.907317 5.299005 6.874173
v 4.907317 5.299005 3.834173
v 4.907317 1.125996 6.874173
v 4.907317 1.125997 3.834173
v 4.907317 5.090354 6.653956
v 4.907317 5.090354 4.054389
v 4.907317 1.334646 6.653956
v 4.907317 1.334648 4.054389
v 4.907317 5.090354 6.653956
v 4.907317 5.090354 4.054389
v 4.907317 1.334646 6.653956
v 4.907317 1.334648 4.054389
v 4.807318 1.173224 3.868577
v 4.807318 1.173223 6.839768
v 4.807318 5.251778 6.839768
v 4.807318 5.251778 3.868577
v 4.835388 1.173224 3.868577
v 4.835388 1.173223 6.839768
v 4.835388 5.251778 6.839768
v 4.835388 5.251778 3.868577
v 4.878587 5.321256 -2.388550
v 4.878587 5.321256 2.290009
v 4.878587 0.564153 2.290009
v 4.878587 0.564154 -2.388550
v 4.984579 5.321256 -2.388550
v 4.984579 0.564154 -2.388550
v 4.984579 5.321256 2.290009
v 4.984579 0.564153 2.290009
v 4.984579 5.083401 -2.154622
v 4.984579 0.539075 -2.154622
v 4.984579 5.083401 2.056081
v 4.984579 0.539074 2.056081
v 4.922065 5.083401 -2.154622
v 4.922065 0.539075 -2.154622
v 4.922065 5.083401 2.056081
v 4.922065 0.539074 2.056081
v 4.878587 5.321256 -0.044786
v 4.878587 0.564154 -0.044786
v 4.984579 5.202328 -0.048845
v 4.984579 0.564154 -0.044786
v 4.984579 0.539074 -0.045235
v 4.922065 5.083401 -0.045235
v 4.922065 0.539074 -0.045235
v 4.878587 5.321256 -0.052859
v 4.922065 5.083401 -0.052500
v 4.878587 0.564154 -0.052859
v 4.984579 0.564154 -0.052859
v 4.984579 0.539074 -0.052500
v 4.922065 0.539074 -0.052500
v 4.922065 0.539074 -0.052500
v 4.922065 0.539074 -0.045235
v 4.922065 5.083401 -0.045235
v 4.922065 5.083401 -0.052500
v 4.887440 0.539074 -0.052500
v 4.887440 0.539074 -0.045235
v 4.887440 5.083401 -0.045235
v 4.887440 5.083401 -0.052500
v 3.689812 11.207267 1.378934
v 3.689812 11.207267 -0.105590
v 2.761985 11.207267 -0.105590
v 2.761985 11.207267 1.378934
v 3.689812 10.522192 1.378934
v 3.689812 10.522192 -0.105590
v 2.761985 10.522192 -0.105590
v 2.761985 10.522192 1.378934
v -1.455271 11.749983 -5.380628
v -4.086685 11.749983 -5.380628
v -4.086685 11.749983 -3.735993
v -1.455271 11.749983 -3.735993
v -1.455271 10.567423 -5.380628
v -4.086685 10.567423 -5.380628
v -4.086685 10.567423 -3.735993
v -1.455271 10.567423 -3.735993
v 4.851121 5.090354 6.653956
v 4.851121 5.090354 4.054389
v 4.851121 1.334646 6.653956
v 4.851121 1.334648 4.054389
v 4.726440 5.251778 3.868577
v 4.726440 5.251778 6.839768
v 4.726440 1.173223 6.839768
v 4.726440 1.173224 3.868577
v 4.851121 5.090354 6.653956
v 4.851121 5.090354 4.054389
v 4.851121 1.334646 6.653956
v 4.851121 1.334648 4.054389
v 4.713572 5.321256 -2.388550
v 4.713572 5.321256 2.290009
v 4.713572 0.564153 2.290009
v 4.713572 0.564154 -2.388550
v 4.713572 5.321256 -0.044786
v 4.713572 0.564154 -0.044786
v 4.713572 5.321256 -0.052859
v 4.713572 0.564154 -0.052859
v 4.891698 3.167799 0.374061
v 4.891698 3.167799 0.104803
v 4.891698 2.324396 0.374061
v 4.891698 2.324397 0.104803
v 4.960778 3.167799 0.374061
v 4.960778 3.167799 0.104803
v 4.960778 2.324396 0.374061
v 4.960778 2.324397 0.104803
v 4.891698 3.167799 -0.220146
v 4.891698 3.167799 -0.489403
v 4.891698 2.324396 -0.220146
v 4.891698 2.324397 -0.489403
v 4.960778 3.167799 -0.220146
v 4.960778 3.167799 -0.489403
v 4.960778 2.324396 -0.220146
v 4.960778 2.324397 -0.489403
v 1.863330 7.765254 7.713340
v -2.109902 7.765254 7.713340
v 1.863330 9.539627 7.713340
v -2.109902 9.539627 7.713340
v -2.256444 9.638204 7.587606
v 2.009871 9.638204 7.587606
v -2.256444 7.666677 7.587606
v 2.009871 7.666678 7.587606
v 4.717274 1.444665 -2.406849
v 4.717274 1.444665 -3.396645
v 4.717274 0.014665 -2.406849
v 4.717274 0.014665 -3.396645
v 5.788509 1.444665 -3.396645
v 5.788509 0.014665 -3.396645
v 5.788509 0.014665 -2.406849
v 5.788509 1.444665 -2.406849
v 6.875166 0.864901 -2.406849
v 6.875166 -0.565099 -2.406849
v 6.875166 -0.565098 -3.396645
v 6.875166 0.864901 -3.396645
v 5.803931 -0.565098 -3.396645
v 5.803931 -0.565099 -2.406849
v 5.803931 0.864901 -3.396645
v 5.803931 0.864901 -2.406849
v 5.000000 -0.845282 -8.000000
v -5.000000 -0.845282 -8.000000
v 5.000000 -0.845282 8.000000
v -5.000000 -0.845282 8.000000
v 5.803931 0.864901 3.280771
v 5.803931 0.864901 2.290976
v 5.803931 -0.565099 3.280771
v 5.803931 -0.565098 2.290976
v 6.875166 0.864901 2.290976
v 6.875166 -0.565098 2.290976
v 6.875166 -0.565099 3.280771
v 6.875166 0.864901 3.280771
v 5.788509 1.444665 3.280771
v 5.788509 0.014665 3.280771
v 5.788509 0.014665 2.290976
v 5.788509 1.444665 2.290976
v 4.717274 0.014665 2.290976
v 4.717274 0.014665 3.280771
v 4.717274 1.444665 2.290976
v 4.717274 1.444665 3.280771
v 2.009871 9.638204 7.713340
v 2.009871 7.666678 7.713340
v -2.256444 7.666677 7.713340
v -2.256444 9.638204 7.713340
v 2.009871 9.638204 -7.703239
v 2.009871 7.666677 -7.703239
v -2.256444 7.666678 -7.703239
v -2.256444 9.638204 -7.703239
v -2.256444 7.666678 -7.577505
v 2.009871 7.666677 -7.577505
v -2.256444 9.638204 -7.577505
v 2.009871 9.638204 -7.577505
v 1.863330 9.539627 -7.703239
v -2.109902 9.539627 -7.703239
v 1.863330 7.765254 -7.703239
v -2.109902 7.765254 -7.703239
v 4.907317 5.299005 -6.975429
v 4.907317 5.299005 -3.935429
v 4.907317 1.125996 -3.935429
v 4.907317 1.125997 -6.975429
v 4.807318 1.125997 -6.975429
v 4.807318 1.125996 -3.935429
v 4.807318 5.299005 -6.975429
v 4.807318 5.299005 -3.935429
v 4.907317 5.299005 -3.935429
v 4.907317 5.299005 -6.975429
v 4.907317 1.125996 -3.935429
v 4.907317 1.125997 -6.975429
v 4.907317 5.299005 -3.935429
v 4.907317 5.299005 -6.975429
v 4.907317 1.125996 -3.935429
v 4.907317 1.125997 -6.975429
v 4.907317 5.090354 -4.155645
v 4.907317 5.090354 -6.755213
v 4.907317 1.334646 -4.155645
v 4.907317 1.334648 -6.755213
v 4.907317 5.090354 -4.155645
v 4.907317 5.090354 -6.755213
v 4.907317 1.334646 -4.155645
v 4.907317 1.334648 -6.755213
v 4.807318 1.173224 -6.941025
v 4.807318 1.173223 -3.969833
v 4.807318 5.251778 -3.969833
v 4.807318 5.251778 -6.941025
v 4.835388 1.173224 -6.941025
v 4.835388 1.173223 -3.969833
v 4.835388 5.251778 -3.969833
v 4.835388 5.251778 -6.941025
v 4.851121 5.090354 -4.155645
v 4.851121 5.090354 -6.755213
v 4.851121 1.334646 -4.155645
v 4.851121 1.334648 -6.755213
v 4.726440 5.251778 -6.941025
v 4.726440 5.251778 -3.969833
v 4.726440 1.173223 -3.969833
v 4.726440 1.173224 -6.941025
v 4.851121 5.090354 -4.155645
v 4.851121 5.090354 -6.755213
v 4.851121 1.334646 -4.155645
v 4.851121 1.334648 -6.755213
v 5.788509 0.577235 2.359585
v 5.788509 -0.174579 2.359585
v 5.788509 -0.174579 -2.457456
v 5.788509 0.577235 -2.457456
v 4.717274 -0.174579 -2.457456
v 4.717274 -0.174579 2.359585
v 4.717274 0.577235 -2.457456
v 4.717274 0.577235 2.359585
v -7.184519 -0.845282 11.495230
v 7.184519 -0.845282 11.495230
v -7.184519 -0.845282 -11.495230
v 7.184519 -0.845282 -11.495230
v 4.717274 -0.906911 -2.406849
v 4.717274 -0.906910 -3.396645
v 5.788509 -0.906910 -3.396645
v 5.788509 -0.906911 -2.406849
v 6.875166 -0.948619 -2.406849
v 6.875166 -0.948619 -3.396645
v 5.803931 -0.948619 -3.396645
v 5.803931 -0.948619 -2.406849
v 5.788509 -0.926253 3.280771
v 5.788509 -0.926252 2.290976
v 4.717274 -0.926252 2.290976
v 4.717274 -0.926253 3.280771
v 5.803931 -0.919252 3.280771
v 5.803931 -0.919252 2.290976
v 6.875166 -0.919252 2.290976
v 6.875166 -0.919252 3.280771
v 6.847988 -0.142393 2.359585
v 6.847988 -0.866756 2.359585
v 6.847988 -0.866756 -2.457456
v 6.847988 -0.142393 -2.457456
v 5.776753 -0.866756 -2.457456
v 5.776753 -0.866756 2.359585
v 5.776753 -0.142393 -2.457456
v 5.776753 -0.142393 2.359585
vn -0.0000 -0.0000 1.0000
vn -0.0000 1.0000 -0.0000
vn 1.0000 -0.0000 -0.0000
vn -1.0000 -0.0000 -0.0000
vn -0.0000 -0.0000 -1.0000
vn -0.0000 -1.0000 -0.0000
vn 0.4888 0.8721 -0.0222
vn 0.6888 -0.7247 -0.0205
vn 0.8852 -0.4653 -0.0000
vn 0.7465 0.6653 -0.0000
vn 0.4888 0.8721 0.0222
vn 0.6888 -0.7247 0.0205
vt 1.000000 0.000000
vt 0.000000 0.000000
vt 1.000000 1.000000
vt 0.000000 1.000000
vt 1.000000 0.500767
vt 1.000000 0.500767
vt 1.000000 0.499042
vt 1.000000 0.500767
vt 1.000000 0.500767
vt 1.000000 0.499042
vt 1.000000 0.499041
vt 1.000000 0.500767
s 0
usemtl building_base
f 34/1/3 33/3/3 16/3/3 15/1/3
f 36/4/4 35/2/4 14/2/4 13/4/4
f 33/3/5 36/4/5 13/4/5 16/3/5
f 35/2/1 34/1/1 15/1/1 14/2/1
f 30/2/2 31/1/2 32/3/2 29/4/2
f 11/1/3 12/3/3 39/3/3 37/1/3
f 9/4/4 10/2/4 40/2/4 38/4/4
f 12/3/5 9/4/5 38/4/5 39/3/5
f 10/2/1 11/1/1 37/1/1 40/2/1
usemtl black
f 2/1/1 1/2/1 197/2/1 196/1/1
f 8/3/2 5/4/2 9/4/2 12/3/2
f 2/1/3 4/3/3 8/3/3 7/1/3
f 3/4/4 1/2/4 6/2/4 5/4/4
f 4/3/5 3/4/5 5/4/5 8/3/5
f 1/2/1 2/1/1 7/1/1 6/2/1
f 6/2/2 7/1/2 11/1/2 10/2/2
f 7/1/2 8/3/2 12/3/2 11/1/2
f 5/4/2 6/2/2 10/2/2 9/4/2
f 15/1/6 16/3/6 20/3/6 19/1/6
f 20/3/5 17/4/5 21/4/5 24/3/5
f 13/4/6 14/2/6 18/2/6 17/4/6
f 16/3/6 13/4/6 17/4/6 20/3/6
f 14/2/6 15/1/6 19/1/6 18/2/6
f 23/1/2 24/3/2 28/3/2 27/1/2
f 18/2/1 19/1/1 23/1/1 22/2/1
f 19/1/3 20/3/3 24/3/3 23/1/3
f 17/4/4 18/2/4 22/2/4 21/4/4
f 25/4/3 26/2/3 30/2/3 29/4/3
f 21/4/2 22/2/2 26/2/2 25/4/2
f 24/3/2 21/4/2 25/4/2 28/3/2
f 22/2/2 23/1/2 27/1/2 26/2/2
f 28/3/1 25/4/1 29/4/1 32/3/1
f 26/2/5 27/1/5 31/1/5 30/2/5
f 27/1/4 28/3/4 32/3/4 31/1/4
f 38/4/6 40/2/6 43/2/6 48/4/6
f 34/1/2 35/2/2 44/2/2 45/1/2
f 40/2/6 37/1/6 47/1/6 43/2/6
f 35/2/2 36/4/2 46/4/2 44/2/2
f 43/2/1 47/1/1 45/1/1 44/2/1
f 41/3/5 48/4/5 46/4/5 42/3/5
f 48/4/4 43/2/4 44/2/4 46/4/4
f 47/1/3 41/3/3 42/3/3 45/1/3
f 33/3/2 34/1/2 45/1/2 42/3/2
f 36/4/2 33/3/2 42/3/2 46/4/2
f 39/3/6 38/4/6 48/4/6 41/3/6
f 37/1/6 39/3/6 41/3/6 47/1/6
f 3/4/5 4/3/5 194/3/5 195/4/5
f 1/2/4 3/4/4 195/4/4 197/2/4
f 4/3/3 2/1/3 196/1/3 194/3/3
usemtl gray
f 119/2/2 120/1/2 121/3/2 118/4/2
f 309/1/1 307/1/1 303/1/1 302/1/1
f 120/1/4 124/1/4 125/3/4 121/3/4
f 118/4/3 122/4/3 123/2/3 119/2/3
f 121/3/1 125/3/1 122/4/1 118/4/1
f 119/2/5 123/2/5 124/1/5 120/1/5
f 127/2/2 128/1/2 129/3/2 126/4/2
f 306/3/5 308/3/5 305/3/5 304/3/5
f 129/3/1 128/1/1 132/1/1 133/3/1
f 127/2/5 126/4/5 130/4/5 131/2/5
f 126/4/3 129/3/3 133/3/3 130/4/3
f 128/1/4 127/2/4 131/2/4 132/1/4
f 158/1/3 160/1/3 161/3/3 159/3/3
f 154/1/1 156/1/1 160/1/1 158/1/1
f 156/1/6 157/3/6 161/3/6 160/1/6
f 155/3/2 154/1/2 158/1/2 159/3/2
f 157/3/5 155/3/5 159/3/5 161/3/5
f 166/1/3 168/1/3 169/3/3 167/3/3
f 162/1/1 164/1/1 168/1/1 166/1/1
f 164/1/6 165/3/6 169/3/6 168/1/6
f 163/3/2 162/1/2 166/1/2 167/3/2
f 165/3/5 163/3/5 167/3/5 169/3/5
f 203/3/3 204/1/3 301/1/3 300/3/3
f 201/3/5 203/3/5 300/3/5 299/3/5
f 185/1/3 184/1/3 183/3/3 182/3/3
f 179/3/2 178/1/2 185/1/2 182/3/2
f 204/1/1 200/1/1 298/1/1 301/1/1
f 178/1/1 180/1/1 184/1/1 185/1/1
f 181/3/5 179/3/5 182/3/5 183/3/5
f 190/3/5 192/3/5 189/3/5 188/3/5
f 193/1/1 191/1/1 187/1/1 186/1/1
f 207/1/1 211/1/1 297/1/1 294/1/1
f 192/3/2 193/1/2 186/1/2 189/3/2
f 186/1/3 187/1/3 188/3/3 189/3/3
f 210/3/5 208/3/5 295/3/5 296/3/5
f 208/3/3 207/1/3 294/1/3 295/3/3
f 205/1/3 204/1/3 203/3/3 202/3/3
f 199/3/2 198/1/2 205/1/2 202/3/2
f 187/1/1 191/1/1 293/1/1 290/1/1
f 198/1/1 200/1/1 204/1/1 205/1/1
f 201/3/5 199/3/5 202/3/5 203/3/5
f 210/3/5 212/3/5 209/3/5 208/3/5
f 213/1/1 211/1/1 207/1/1 206/1/1
f 190/3/5 188/3/5 291/3/5 292/3/5
f 212/3/2 213/1/2 206/1/2 209/3/2
f 206/1/3 207/1/3 208/3/3 209/3/3
f 188/3/3 187/1/3 290/1/3 291/3/3
f 183/3/3 184/1/3 289/1/3 288/3/3
f 278/3/5 280/3/5 277/3/5 276/3/5
f 281/1/1 279/1/1 275/1/1 274/1/1
f 181/3/5 183/3/5 288/3/5 287/3/5
f 280/3/2 281/1/2 274/1/2 277/3/2
f 274/1/3 275/1/3 276/3/3 277/3/3
f 184/1/1 180/1/1 286/1/1 289/1/1
f 308/3/2 309/1/2 302/1/2 305/3/2
f 302/1/3 303/1/3 304/3/3 305/3/3
usemtl brown
f 55/3/5 49/3/5 52/3/5 53/3/5
f 55/3/4 76/3/4 75/1/4 56/1/4
f 54/1/1 51/1/1 50/1/1 56/1/1
f 49/3/2 58/3/2 60/3/2 52/3/2
f 53/3/6 52/3/6 51/1/6 54/1/6
f 56/1/2 50/1/2 49/3/2 55/3/2
f 58/3/2 62/3/2 64/3/2 60/3/2
f 51/1/2 59/1/2 57/1/2 50/1/2
f 50/1/2 57/1/2 58/3/2 49/3/2
f 52/3/2 60/3/2 59/1/2 51/1/2
f 64/3/3 68/3/3 67/1/3 63/1/3
f 59/1/2 63/1/2 61/1/2 57/1/2
f 60/3/2 64/3/2 63/1/2 59/1/2
f 57/1/2 61/1/2 62/3/2 58/3/2
f 65/1/2 69/1/2 70/3/2 66/3/2
f 61/1/3 65/1/3 66/3/3 62/3/3
f 62/3/3 66/3/3 68/3/3 64/3/3
f 63/1/3 67/1/3 65/1/3 61/1/3
f 66/3/2 70/3/2 72/3/2 68/3/2
f 67/1/2 71/1/2 69/1/2 65/1/2
f 68/3/2 72/3/2 71/1/2 67/1/2
f 76/3/6 80/3/6 79/1/6 75/1/6
f 54/1/4 74/1/4 73/3/4 53/3/4
f 53/3/4 73/3/4 76/3/4 55/3/4
f 56/1/4 75/1/4 74/1/4 54/1/4
f 135/3/2 134/1/2 142/1/2 143/3/2
f 74/1/2 78/1/2 77/3/2 73/3/2
f 73/3/1 77/3/1 80/3/1 76/3/1
f 75/1/5 79/1/5 78/1/5 74/1/5
f 107/5/4 86/3/4 90/3/4 108/6/4
f 82/1/1 83/1/1 88/1/1 87/1/1
f 97/7/7 82/1/7 87/1/7 99/7/7
f 106/8/6 84/3/6 86/3/6 107/5/6
f 84/3/5 81/3/5 85/3/5 86/3/5
f 90/3/1 89/3/1 93/3/1 94/3/1
f 86/3/3 85/3/3 89/3/3 90/3/3
f 87/1/3 88/1/3 92/1/3 91/1/3
f 99/7/3 87/1/3 91/1/3
f 91/1/5 92/1/5 96/1/5 95/1/5
f 99/10/8 91/1/8 95/1/8 102/10/8
f 108/6/2 90/3/2 94/3/2 109/6/2
f 92/1/2 101/10/2 103/10/2 96/1/2
f 99/10/9 102/10/9 105/9/9
f 83/1/6 98/7/6 100/11/6 88/1/6
f 104/8/10 97/7/10 99/8/10
f 88/1/4 100/11/4 101/10/4 92/1/4
f 81/3/11 104/8/11 99/8/11 85/3/11
f 85/3/3 99/12/3 89/3/3
f 89/3/12 99/12/12 105/9/12 93/3/12
f 101/10/2 108/6/2 109/6/2 103/10/2
f 109/6/2 105/9/2 113/9/2 110/6/2
f 98/7/6 106/8/6 107/5/6 100/11/6
f 100/11/4 107/5/4 108/6/4 101/10/4
f 110/6/1 113/9/1 117/9/1 114/6/1
f 103/10/2 109/6/2 110/6/2 111/10/2
f 102/10/2 103/10/2 111/10/2 112/10/2
f 105/9/2 102/10/2 112/10/2 113/9/2
f 116/10/3 115/10/3 114/6/3 117/9/3
f 112/10/5 111/10/5 115/10/5 116/10/5
f 113/9/6 112/10/6 116/10/6 117/9/6
f 111/10/2 110/6/2 114/6/2 115/10/2
f 70/3/6 69/1/6 134/1/6 135/3/6
f 72/3/1 70/3/1 135/3/1 137/3/1
f 69/1/5 71/1/5 136/1/5 134/1/5
f 71/1/2 72/3/2 137/3/2 136/1/2
f 77/3/6 78/1/6 140/1/6 141/3/6
f 79/1/2 80/3/2 138/3/2 139/1/2
f 78/1/1 79/1/1 139/1/1 140/1/1
f 80/3/5 77/3/5 141/3/5 138/3/5
f 137/3/2 135/3/2 143/3/2 145/3/2
f 134/1/2 136/1/2 144/1/2 142/1/2
f 136/1/2 137/3/2 145/3/2 144/1/2
f 97/7/2 104/8/2 152/8/2 150/7/2
f 81/3/5 84/3/5 149/3/5 146/3/5
f 106/8/6 98/7/6 151/7/6 153/8/6
f 83/1/1 82/1/1 147/1/1 148/1/1
f 104/8/2 81/3/2 146/3/2 152/8/2
f 82/1/2 97/7/2 150/7/2 147/1/2
f 219/1/5 220/3/5 229/3/5 228/1/5
f 221/3/5 218/1/5 226/1/5 227/3/5
f 220/3/5 221/3/5 227/3/5 229/3/5
f 217/1/1 216/1/1 171/1/1 173/1/1
f 174/1/4 176/1/4 216/1/4 217/1/4
f 177/3/3 175/3/3 214/3/3 215/3/3
f 175/3/2 174/1/2 217/1/2 214/3/2
f 176/1/6 177/3/6 215/3/6 216/1/6
f 215/3/1 214/3/1 172/3/1 170/3/1
f 214/3/1 217/1/1 173/1/1 172/3/1
f 216/1/1 215/3/1 170/3/1 171/1/1
f 223/1/6 222/3/6 220/3/6 219/1/6
f 224/3/2 225/1/2 218/1/2 221/3/2
f 222/3/4 224/3/4 221/3/4 220/3/4
f 225/1/3 223/1/3 219/1/3 218/1/3
f 218/1/5 219/1/5 228/1/5 226/1/5
f 236/3/5 230/3/5 233/3/5 234/3/5
f 236/3/4 257/3/4 256/1/4 237/1/4
f 235/1/1 232/1/1 231/1/1 237/1/1
f 230/3/2 239/3/2 241/3/2 233/3/2
f 234/3/6 233/3/6 232/1/6 235/1/6
f 237/1/2 231/1/2 230/3/2 236/3/2
f 239/3/2 243/3/2 245/3/2 241/3/2
f 232/1/2 240/1/2 238/1/2 231/1/2
f 231/1/2 238/1/2 239/3/2 230/3/2
f 233/3/2 241/3/2 240/1/2 232/1/2
f 245/3/3 249/3/3 248/1/3 244/1/3
f 240/1/2 244/1/2 242/1/2 238/1/2
f 241/3/2 245/3/2 244/1/2 240/1/2
f 238/1/2 242/1/2 243/3/2 239/3/2
f 246/1/2 250/1/2 251/3/2 247/3/2
f 242/1/3 246/1/3 247/3/3 243/3/3
f 243/3/3 247/3/3 249/3/3 245/3/3
f 244/1/3 248/1/3 246/1/3 242/1/3
f 247/3/2 251/3/2 253/3/2 249/3/2
f 248/1/2 252/1/2 250/1/2 246/1/2
f 249/3/2 253/3/2 252/1/2 248/1/2
f 257/3/6 261/3/6 260/1/6 256/1/6
f 235/1/4 255/1/4 254/3/4 234/3/4
f 234/3/4 254/3/4 257/3/4 236/3/4
f 237/1/4 256/1/4 255/1/4 235/1/4
f 263/3/2 262/1/2 270/1/2 271/3/2
f 255/1/2 259/1/2 258/3/2 254/3/2
f 254/3/1 258/3/1 261/3/1 257/3/1
f 256/1/5 260/1/5 259/1/5 255/1/5
f 251/3/6 250/1/6 262/1/6 263/3/6
f 253/3/1 251/3/1 263/3/1 265/3/1
f 250/1/5 252/1/5 264/1/5 262/1/5
f 252/1/2 253/3/2 265/3/2 264/1/2
f 258/3/6 259/1/6 268/1/6 269/3/6
f 260/1/2 261/3/2 266/3/2 267/1/2
f 259/1/1 260/1/1 267/1/1 268/1/1
f 261/3/5 258/3/5 269/3/5 266/3/5
f 265/3/2 263/3/2 271/3/2 273/3/2
f 262/1/2 264/1/2 272/1/2 270/1/2
f 264/1/2 265/3/2 273/3/2 272/1/2
usemtl blue
f 142/1/3 144/1/3 145/3/3 143/3/3
f 226/1/5 228/1/5 229/3/5 227/3/5
f 173/1/1 171/1/1 170/3/1 172/3/1
f 270/1/3 272/1/3 273/3/3 271/3/3
usemtl tan
f 105/9/3 109/6/3 94/3/3 93/3/3
f 95/1/3 96/1/3 103/10/3 102/10/3
usemtl green
f 195/4/2 194/3/2 285/3/2 284/4/2
f 196/1/2 197/2/2 282/2/2 283/1/2
f 194/3/2 196/1/2 283/1/2 285/3/2
f 197/2/2 195/4/2 284/4/2 282/2/2
l 97 98
